<svg width="1909" height="396" xmlns="http://www.w3.org/2000/svg"><g fill="none" fill-rule="evenodd"><path stroke="#2A2A2A" stroke-width="5" stroke-linecap="square" d="M2.5 230.5h1903"/><path d="M37.5 173v-60.75h.25L78.25 173h47.5L77 110.5c21.5-5.25 38.75-24.25 38.75-53 0-32.25-24.5-54.5-52-54.5H0v170h37.5Zm20-90.25h-20V32.5h20c11 0 22.5 9.5 22.5 25 0 16.25-11.5 25.25-22.5 25.25ZM239 175.5c47 0 87.5-40.5 87.5-87.5S286 .5 239 .5 151.5 41 151.5 88s40.5 87.5 87.5 87.5Zm0-37.5c-26.25 0-50-24-50-50.25s23.75-50 50-50 50 23.75 50 50S265.25 138 239 138Zm200 35c32.5 0 51.5-19.5 51.5-48.75 0-23-15.5-38.25-34.5-42.75 12.75-5.75 20.25-18.75 20.25-36 0-23.25-18.5-42.5-47.5-42.5h-58.5v170H439ZM420.75 72h-13V32.5h13c10.75 0 19.75 8.75 19.75 19.75 0 10.75-9 19.75-19.75 19.75Zm10.75 71.75h-23.75v-41h23.75c11.25 0 20.75 9.5 20.75 20.5 0 11.25-9.5 20.5-20.75 20.5ZM648 173v-60.75h.25l40.5 60.75h47.5l-48.75-62.5c21.5-5.25 38.75-24.25 38.75-53 0-32.25-24.5-54.5-52-54.5H610.5v170H648Zm20-90.25h-20V32.5h20c11 0 22.5 9.5 22.5 25 0 16.25-11.5 25.25-22.5 25.25ZM805.75 173V3h-37.5v170h37.5ZM937 175.5c38.75 0 71.75-25.25 83.25-60.25H978.5c-7 15-24 25.25-41.5 25.25-27.5 0-49.5-23.5-49.5-52.5 0-28.75 22-52.5 49.5-52.5 17.25 0 34.25 9.5 41.25 24.75H1020C1008.5 25.5 975.75.5 937 .5c-48.25 0-87.5 39.25-87.5 87.5s39.25 87.5 87.5 87.5Zm162-2.5v-68.25h56V173h40V3h-40v67.75h-56V3h-37.5v170h37.5Zm172.5 0 12.25-34.25h64.75l12.25 34.25H1401L1332 3h-31.75l-69 170h40.25Zm66-65h-43l21.5-60.5 21.5 60.5Zm137.25 65v-60.75h.25l40.5 60.75h47.5l-48.75-62.5c21.5-5.25 38.75-24.25 38.75-53 0-32.25-24.5-54.5-52-54.5h-63.75v170h37.5Zm20-90.25h-20V32.5h20c11 0 22.5 9.5 22.5 25 0 16.25-11.5 25.25-22.5 25.25ZM1645.5 173c48.25 0 84.5-37 84.5-85s-36.5-85-84.5-85H1595v170h50.5Zm-2.25-34.5H1632V37.75h11.25c29 0 48.5 22 48.5 50.25s-19.75 50.5-48.5 50.5Zm195 38.5c34.75 0 70.5-14.75 70.5-54.75 0-64.75-98.25-43-98.25-73.25 0-12.75 14.75-17.75 25.25-17.75 18.75 0 29 5.75 31 23.5H1903C1901.75 16 1870.25.5 1835.25.5c-31 0-63.5 16.5-63.5 51.5 0 62.75 98.25 41.5 98.25 74.5 0 15.25-18.5 20-30.25 20-18.5 0-34.5-9.25-35.5-29.5h-38c.25 41.5 34.5 60 72 60ZM232.8 395l30.6-78.6 15.9 72.6h10.65l-23.7-108.75-33.45 87.3-33.45-87.3L175.5 389h10.8l15.75-72.6L232.8 395Zm171.55-6 10.992-27.75h44.816L471.1 389h11.4l-44.7-109.05L392.95 389h11.4Zm51.963-37.5h-37.11l18.597-46.95 18.513 46.95Zm168.022 39.45c10.01 0 18.414-2.221 25.213-6.663 8.101-5.258 12.16-13.012 12.174-23.262-.015-8.35-3.28-14.818-9.795-19.403-4.685-3.315-12.221-6.317-22.61-9.008-10.388-2.69-17.188-4.888-20.398-6.592-6.825-3.432-10.224-8.27-10.197-14.513-.015-3.34.721-6.087 2.208-8.244 3.913-5.843 10.795-8.765 20.644-8.765 13.95 0 21.944 4.4 23.98 13.2h11.357c-3.727-14.8-15.506-22.2-35.337-22.2-9.05 0-16.924 2.375-23.624 7.125-6.7 4.75-10.054 11.915-10.06 21.494-.01 13.023 10.388 21.947 31.193 26.77 13.211 3.169 22.175 6.676 26.89 10.523 3.285 2.659 4.927 6.113 4.927 10.363 0 4.25-.881 7.604-2.644 10.063-4.537 6.341-12.508 9.512-23.912 9.512-15.996 0-24.956-5.4-26.88-16.2H585.05c3.6 17.2 16.695 25.8 39.285 25.8Zm179.515-2.25v-92.25h24.75v-9.75h-60v9.75h24.75v92.25h10.5Zm199.6.3v-9.75h-50.1v-36.3h48.6v-9.9h-48.6v-36.3h50.1V287h-60.6v102h60.6Zm133 0v-40.35h12.245L1178.6 389h14.1l-31.401-40.434c7.925-.512 14.667-3.36 20.226-8.541 6.35-5.92 9.525-13.344 9.525-22.275 0-8.83-3.175-16.206-9.525-22.125-6.168-5.75-13.793-8.625-22.875-8.625h-32.7v102h10.5Zm23.7-50.4h-23.7v-41.55h23.7c6.2 0 11.15 1.925 14.85 5.775 3.7 3.85 5.55 8.746 5.55 14.688 0 5.941-1.95 10.97-5.85 15.087-3.79 4-8.64 6-14.55 6Zm157.9 50.4V287h-10.5v102h10.5Zm190.3 6.3V287h-10.5v75l-57.3-81.45V389h10.5v-75.15l57.3 81.45Zm170.5-5.1c12.368 0 23.51-3.998 33.425-11.994 9.915-7.997 15.974-18.198 18.175-30.606l1.05-6.3h-53.1v9.15h41.4c-3.017 8.85-8.284 15.937-15.802 21.262-7.518 5.325-15.9 7.988-25.148 7.988-11.657 0-21.571-4.14-29.743-12.418-8.171-8.28-12.257-18.19-12.257-29.732 0-11.6 4.1-21.5 12.3-29.7 8.2-8.2 18.1-12.3 29.7-12.3 8.738 0 16.667 2.46 23.787 7.381 7.12 4.921 12.29 11.51 15.513 19.769h11.1c-3.416-11.252-9.792-20.34-19.129-27.264-9.337-6.924-20.11-10.386-32.321-10.386-6.5 0-12.95 1.375-19.35 4.125-6.4 2.75-11.975 6.5-16.725 11.25-4.75 4.75-8.5 10.325-11.25 16.725-2.75 6.4-4.125 13.225-4.125 20.475 0 7.25 1.375 14.075 4.125 20.475 2.75 6.4 6.5 11.975 11.25 16.725 4.75 4.75 10.325 8.5 16.725 11.25 6.4 2.75 13.2 4.125 20.4 4.125Z" fill-opacity=".888" fill="#151515" fill-rule="nonzero"/></g></svg>