<?xml version="1.0" encoding="UTF-8"?>
<svg width="1909px" height="396px" viewBox="0 0 1909 396" version="1.1" xmlns="http://www.w3.org/2000/svg" xmlns:xlink="http://www.w3.org/1999/xlink">
    <title>Group 3</title>
    <g id="Page-1" stroke="none" stroke-width="1" fill="none" fill-rule="evenodd">
        <g id="Group-Copy-2" transform="translate(-232.000000, -264.000000)">
            <g id="Group-3" transform="translate(217.000000, 199.000000)">
                <line x1="17.5" y1="295.5" x2="1920.5" y2="295.5" id="Line" stroke="#2A2A2A" stroke-width="5" stroke-linecap="square"></line>
                <path d="M52.5,238 L52.5,177.25 L52.75,177.25 L93.25,238 L140.75,238 L92,175.5 C113.5,170.25 130.75,151.25 130.75,122.5 C130.75,90.25 106.25,68 78.75,68 L15,68 L15,238 L52.5,238 Z M72.5,147.75 L52.5,147.75 L52.5,97.5 L72.5,97.5 C83.5,97.5 95,107 95,122.5 C95,138.75 83.5,147.75 72.5,147.75 Z M254,240.5 C301,240.5 341.5,200 341.5,153 C341.5,106 301,65.5 254,65.5 C207,65.5 166.5,106 166.5,153 C166.5,200 207,240.5 254,240.5 Z M254,203 C227.75,203 204,179 204,152.75 C204,126.5 227.75,102.75 254,102.75 C280.25,102.75 304,126.5 304,152.75 C304,179 280.25,203 254,203 Z M454,238 C486.5,238 505.5,218.5 505.5,189.25 C505.5,166.25 490,151 471,146.5 C483.75,140.75 491.25,127.75 491.25,110.5 C491.25,87.25 472.75,68 443.75,68 L385.25,68 L385.25,238 L454,238 Z M435.75,137 L422.75,137 L422.75,97.5 L435.75,97.5 C446.5,97.5 455.5,106.25 455.5,117.25 C455.5,128 446.5,137 435.75,137 Z M446.5,208.75 L422.75,208.75 L422.75,167.75 L446.5,167.75 C457.75,167.75 467.25,177.25 467.25,188.25 C467.25,199.5 457.75,208.75 446.5,208.75 Z M663,238 L663,177.25 L663.25,177.25 L703.75,238 L751.25,238 L702.5,175.5 C724,170.25 741.25,151.25 741.25,122.5 C741.25,90.25 716.75,68 689.25,68 L625.5,68 L625.5,238 L663,238 Z M683,147.75 L663,147.75 L663,97.5 L683,97.5 C694,97.5 705.5,107 705.5,122.5 C705.5,138.75 694,147.75 683,147.75 Z M820.75,238 L820.75,68 L783.25,68 L783.25,238 L820.75,238 Z M952,240.5 C990.75,240.5 1023.75,215.25 1035.25,180.25 L993.5,180.25 C986.5,195.25 969.5,205.5 952,205.5 C924.5,205.5 902.5,182 902.5,153 C902.5,124.25 924.5,100.5 952,100.5 C969.25,100.5 986.25,110 993.25,125.25 L1035,125.25 C1023.5,90.5 990.75,65.5 952,65.5 C903.75,65.5 864.5,104.75 864.5,153 C864.5,201.25 903.75,240.5 952,240.5 Z M1114,238 L1114,169.75 L1170,169.75 L1170,238 L1210,238 L1210,68 L1170,68 L1170,135.75 L1114,135.75 L1114,68 L1076.5,68 L1076.5,238 L1114,238 Z M1286.5,238 L1298.75,203.75 L1363.5,203.75 L1375.75,238 L1416,238 L1347,68 L1315.25,68 L1246.25,238 L1286.5,238 Z M1352.5,173 L1309.5,173 L1331,112.5 L1352.5,173 Z M1489.75,238 L1489.75,177.25 L1490,177.25 L1530.5,238 L1578,238 L1529.25,175.5 C1550.75,170.25 1568,151.25 1568,122.5 C1568,90.25 1543.5,68 1516,68 L1452.25,68 L1452.25,238 L1489.75,238 Z M1509.75,147.75 L1489.75,147.75 L1489.75,97.5 L1509.75,97.5 C1520.75,97.5 1532.25,107 1532.25,122.5 C1532.25,138.75 1520.75,147.75 1509.75,147.75 Z M1660.5,238 C1708.75,238 1745,201 1745,153 C1745,105 1708.5,68 1660.5,68 L1610,68 L1610,238 L1660.5,238 Z M1658.25,203.5 L1647,203.5 L1647,102.75 L1658.25,102.75 C1687.25,102.75 1706.75,124.75 1706.75,153 C1706.75,181.25 1687,203.5 1658.25,203.5 Z M1853.25,242 C1888,242 1923.75,227.25 1923.75,187.25 C1923.75,122.5 1825.5,144.25 1825.5,114 C1825.5,101.25 1840.25,96.25 1850.75,96.25 C1869.5,96.25 1879.75,102 1881.75,119.75 L1918,119.75 C1916.75,81 1885.25,65.5 1850.25,65.5 C1819.25,65.5 1786.75,82 1786.75,117 C1786.75,179.75 1885,158.5 1885,191.5 C1885,206.75 1866.5,211.5 1854.75,211.5 C1836.25,211.5 1820.25,202.25 1819.25,182 L1781.25,182 C1781.5,223.5 1815.75,242 1853.25,242 Z" id="ROBRICHARDS" fill-opacity="0.88797872" fill="#151515" fill-rule="nonzero"></path>
                <path d="M247.8,460 L278.4,381.4 L294.3,454 L304.95,454 L281.25,345.25 L247.8,432.55 L214.35,345.25 L190.5,454 L201.3,454 L217.05,381.4 L247.8,460 Z M419.35,454 L430.341563,426.25 L475.157727,426.25 L486.1,454 L497.5,454 L452.8,344.95 L407.95,454 L419.35,454 Z M471.313144,416.5 L434.203463,416.5 L452.8,369.55 L471.313144,416.5 Z M639.335379,455.95 C649.345126,455.95 657.749415,453.728905 664.548242,449.286719 C672.649414,444.028907 676.707324,436.274951 676.721973,426.024854 C676.707324,417.674951 673.442382,411.207325 666.927148,406.621973 C662.242384,403.307324 654.705808,400.304619 644.317427,397.613854 C633.929044,394.92309 627.129413,392.725698 623.91853,391.02168 C617.09361,387.590469 613.694756,382.75287 613.721973,376.508887 C613.707324,373.169629 614.443262,370.42163 615.929785,368.264893 C619.843262,362.421631 626.724766,359.5 636.5743,359.5 C650.524767,359.5 658.517872,363.899999 660.553613,372.7 L671.911133,372.7 C668.183671,357.899999 656.404727,350.5 636.5743,350.5 C627.524767,350.5 619.650001,352.874999 612.95,357.625 C606.249999,362.375001 602.896478,369.539703 602.88943,379.119106 C602.879852,392.142081 613.277839,401.065514 634.083397,405.889404 C647.294381,409.057738 656.257533,412.565354 660.972852,416.412256 C664.257617,419.070753 665.9,422.525001 665.9,426.775 C665.9,431.024999 665.018505,434.379198 663.255518,436.837598 C658.718505,443.179199 650.747842,446.35 639.343523,446.35 C623.347841,446.35 614.387744,440.95 612.463232,430.15 L600.05,430.15 C603.65,447.350001 616.745126,455.95 639.335379,455.95 Z M818.85,453.7 L818.85,361.45 L843.6,361.45 L843.6,351.7 L783.6,351.7 L783.6,361.45 L808.35,361.45 L808.35,453.7 L818.85,453.7 Z M1018.45,454 L1018.45,444.25 L968.35,444.25 L968.35,407.95 L1016.95,407.95 L1016.95,398.05 L968.35,398.05 L968.35,361.75 L1018.45,361.75 L1018.45,352 L957.85,352 L957.85,454 L1018.45,454 Z M1151.45,454 L1151.45,413.65 L1163.69521,413.65 L1193.6,454 L1207.7,454 L1176.29899,413.56582 C1184.22419,413.053882 1190.96619,410.206942 1196.525,405.024998 C1202.875,399.105507 1206.05,391.680507 1206.05,382.749998 C1206.05,373.919492 1202.875,366.544491 1196.525,360.625 C1190.35682,354.875001 1182.73182,352 1173.65,352 L1140.95,352 L1140.95,454 L1151.45,454 Z M1175.15,403.6 L1151.45,403.6 L1151.45,362.05 L1175.15,362.05 C1181.35,362.05 1186.3,363.974999 1190,367.825 C1193.7,371.675001 1195.55,376.570834 1195.55,382.512501 C1195.55,388.454166 1193.6,393.483334 1189.7,397.6 C1185.91053,401.600001 1181.06053,403.6 1175.15,403.6 Z M1333.05,454 L1333.05,352 L1322.55,352 L1322.55,454 L1333.05,454 Z M1523.35,460.3 L1523.35,352 L1512.85,352 L1512.85,427 L1455.55,345.55 L1455.55,454 L1466.05,454 L1466.05,378.85 L1523.35,460.3 Z M1693.85,455.2 C1706.218,455.2 1717.35967,451.201883 1727.275,443.205647 C1737.19033,435.20941 1743.24866,425.007529 1745.45,412.6 L1746.5,406.3 L1693.4,406.3 L1693.4,415.45 L1734.8,415.45 C1731.78315,424.299439 1726.5157,431.386797 1718.99765,436.712079 C1711.47961,442.03736 1703.09706,444.7 1693.85,444.7 C1682.19286,444.7 1672.27857,440.560526 1664.10714,432.281579 C1655.93571,424.002632 1651.85,414.092106 1651.85,402.55 C1651.85,390.950001 1655.95,381.05 1664.15,372.85 C1672.35,364.649999 1682.25,360.55 1693.85,360.55 C1702.5883,360.55 1710.51718,363.0104 1717.63663,367.931201 C1724.75609,372.852 1729.92721,379.4416 1733.15,387.7 L1744.25,387.7 C1740.83415,376.447798 1734.45784,367.35975 1725.12107,360.43585 C1715.7843,353.51195 1705.01061,350.05 1692.8,350.05 C1686.3,350.05 1679.85,351.425001 1673.45,354.175 C1667.05,356.924999 1661.475,360.674999 1656.725,365.425 C1651.975,370.175001 1648.225,375.749999 1645.475,382.15 C1642.725,388.55 1641.35,395.375001 1641.35,402.625 C1641.35,409.874999 1642.725,416.699999 1645.475,423.1 C1648.225,429.500001 1651.975,435.074999 1656.725,439.825 C1661.475,444.575001 1667.05,448.325001 1673.45,451.075 C1679.85,453.824999 1686.65,455.2 1693.85,455.2 Z" id="MASTERING" fill-opacity="0.88797872" fill="#151515" fill-rule="nonzero"></path>
            </g>
        </g>
    </g>
</svg>